<svg width="191" height="62" viewBox="0 0 191 62" fill="none" xmlns="http://www.w3.org/2000/svg">
<rect x="61" y="1" width="129" height="60" rx="9" fill="black" stroke="black" stroke-width="2"/>
<rect x="1" y="1" width="129" height="60" rx="9" fill="white" stroke="black" stroke-width="2"/>
<path d="M36.85 24.5H37.255C37.525 24.5 37.735 24.605 37.885 24.815C38.035 24.995 38.11 25.16 38.11 25.31C38.11 25.43 37.975 26.06 37.705 27.2C37.435 28.34 36.745 31.205 35.635 35.795C34.555 40.355 33.73 43.745 33.16 45.965C32.92 46.715 32.365 47.09 31.495 47.09C30.625 47.09 30.025 46.64 29.695 45.74L25.645 32.51C23.725 38.63 22.375 43.04 21.595 45.74C21.265 46.64 20.665 47.09 19.795 47.09C18.925 47.09 18.37 46.715 18.13 45.965L13.18 25.58C13.15 25.49 13.135 25.385 13.135 25.265C13.135 25.115 13.195 24.95 13.315 24.77C13.465 24.59 13.69 24.5 13.99 24.5H14.395C14.875 24.5 15.16 24.725 15.25 25.175L19.84 44.21L24.25 29.945C24.43 29.105 24.88 28.685 25.6 28.685C26.35 28.685 26.86 29.09 27.13 29.9C28.09 33.23 29.53 38 31.45 44.21L36.085 25.175C36.205 24.725 36.46 24.5 36.85 24.5ZM50.3032 24.41C52.3732 24.41 54.0532 25.07 55.3432 26.39C56.6632 27.71 57.3232 29.525 57.3232 31.835V46.1C57.3232 46.7 57.0382 47 56.4682 47H56.0632C55.4632 47 55.1632 46.7 55.1632 46.1V31.88C55.1632 30.17 54.6982 28.85 53.7682 27.92C52.8382 26.99 51.5782 26.525 49.9882 26.525C48.4282 26.525 47.0782 27.095 45.9382 28.235C45.6682 28.505 45.4132 28.64 45.1732 28.64C44.6332 28.64 44.3482 28.34 44.3182 27.74C44.3182 27.53 44.3782 27.305 44.4982 27.065C44.8882 26.345 45.6382 25.73 46.7482 25.22C47.8582 24.68 49.0432 24.41 50.3032 24.41ZM42.8332 14.105H43.1932C43.4332 14.105 43.6432 14.195 43.8232 14.375C44.0032 14.525 44.0932 14.735 44.0932 15.005V46.1C44.0932 46.37 44.0032 46.595 43.8232 46.775C43.6432 46.925 43.4332 47 43.1932 47H42.8332C42.5932 47 42.3832 46.925 42.2032 46.775C42.0232 46.595 41.9332 46.37 41.9332 46.1V15.005C41.9332 14.735 42.0232 14.525 42.2032 14.375C42.3832 14.195 42.5932 14.105 42.8332 14.105ZM63.8746 31.835C63.8746 29.465 64.5946 27.635 66.0346 26.345C67.4746 25.055 69.3496 24.41 71.6596 24.41C73.9696 24.41 75.8296 25.07 77.2396 26.39C78.6496 27.68 79.3546 29.495 79.3546 31.835V34.535C79.3546 35.825 78.7396 36.47 77.5096 36.47H67.7896C67.5196 36.47 67.2946 36.38 67.1146 36.2C66.9646 36.02 66.8896 35.81 66.8896 35.57V35.21C66.8896 34.97 66.9646 34.76 67.1146 34.58C67.2946 34.4 67.5196 34.31 67.7896 34.31H77.2396V31.88C77.2396 30.17 76.7146 28.865 75.6646 27.965C74.6146 27.035 73.2796 26.57 71.6596 26.57C70.0396 26.57 68.6896 27.035 67.6096 27.965C66.5596 28.865 66.0346 30.17 66.0346 31.88V39.62C66.0346 41.33 66.5596 42.65 67.6096 43.58C68.6896 44.48 70.0246 44.93 71.6146 44.93C73.2346 44.93 74.5696 44.495 75.6196 43.625C76.6996 42.725 77.2396 41.45 77.2396 39.8C77.2396 39.56 77.3146 39.35 77.4646 39.17C77.6446 38.99 77.8546 38.9 78.0946 38.9H78.4546C78.7246 38.9 78.9346 38.99 79.0846 39.17C79.2646 39.35 79.3546 39.56 79.3546 39.8C79.3246 42.11 78.6046 43.91 77.1946 45.2C75.7846 46.46 73.9396 47.09 71.6596 47.09C69.3796 47.09 67.5046 46.445 66.0346 45.155C64.5946 43.835 63.8746 42.005 63.8746 39.665V31.835ZM93.5852 24.41C94.1552 24.41 94.4402 24.71 94.4402 25.31V25.625C94.4402 25.865 94.3502 26.075 94.1702 26.255C94.0202 26.435 93.8252 26.525 93.5852 26.525C91.8752 26.525 90.5102 26.96 89.4902 27.83C88.4702 28.7 87.9602 30.035 87.9602 31.835V46.1C87.9602 46.37 87.8702 46.595 87.6902 46.775C87.5102 46.925 87.3002 47 87.0602 47H86.7452C86.5052 47 86.2952 46.925 86.1152 46.775C85.9352 46.595 85.8452 46.37 85.8452 46.1V31.835C85.8452 29.375 86.5352 27.53 87.9152 26.3C89.2952 25.04 91.1852 24.41 93.5852 24.41ZM99.0309 31.835C99.0309 29.465 99.7509 27.635 101.191 26.345C102.631 25.055 104.506 24.41 106.816 24.41C109.126 24.41 110.986 25.07 112.396 26.39C113.806 27.68 114.511 29.495 114.511 31.835V34.535C114.511 35.825 113.896 36.47 112.666 36.47H102.946C102.676 36.47 102.451 36.38 102.271 36.2C102.121 36.02 102.046 35.81 102.046 35.57V35.21C102.046 34.97 102.121 34.76 102.271 34.58C102.451 34.4 102.676 34.31 102.946 34.31H112.396V31.88C112.396 30.17 111.871 28.865 110.821 27.965C109.771 27.035 108.436 26.57 106.816 26.57C105.196 26.57 103.846 27.035 102.766 27.965C101.716 28.865 101.191 30.17 101.191 31.88V39.62C101.191 41.33 101.716 42.65 102.766 43.58C103.846 44.48 105.181 44.93 106.771 44.93C108.391 44.93 109.726 44.495 110.776 43.625C111.856 42.725 112.396 41.45 112.396 39.8C112.396 39.56 112.471 39.35 112.621 39.17C112.801 38.99 113.011 38.9 113.251 38.9H113.611C113.881 38.9 114.091 38.99 114.241 39.17C114.421 39.35 114.511 39.56 114.511 39.8C114.481 42.11 113.761 43.91 112.351 45.2C110.941 46.46 109.096 47.09 106.816 47.09C104.536 47.09 102.661 46.445 101.191 45.155C99.7509 43.835 99.0309 42.005 99.0309 39.665V31.835Z" fill="#5EC0BA"/>
<path d="M150.095 24.455H150.86C151.22 24.455 151.46 24.53 151.58 24.68C151.7 24.83 151.76 25.055 151.76 25.355V46.1C151.76 46.37 151.67 46.595 151.49 46.775C151.31 46.925 151.1 47 150.86 47H150.095C149.855 47 149.645 46.925 149.465 46.775C149.285 46.595 149.195 46.37 149.195 46.1V25.355C149.195 24.965 149.27 24.725 149.42 24.635C149.6 24.515 149.825 24.455 150.095 24.455ZM148.34 14.465C148.64 14.195 149.33 14.06 150.41 14.06C151.49 14.06 152.195 14.21 152.525 14.51C152.855 14.78 153.02 15.365 153.02 16.265V16.85C153.02 17.87 152.855 18.515 152.525 18.785C152.195 19.055 151.49 19.19 150.41 19.19C149.33 19.19 148.64 19.055 148.34 18.785C148.04 18.515 147.89 17.87 147.89 16.85V16.265C147.89 15.305 148.04 14.705 148.34 14.465ZM151.445 16.4C151.445 16.1 151.37 15.905 151.22 15.815C151.1 15.695 150.83 15.635 150.41 15.635C150.02 15.635 149.765 15.68 149.645 15.77C149.525 15.86 149.465 16.07 149.465 16.4V16.85C149.465 17.18 149.525 17.39 149.645 17.48C149.765 17.57 150.035 17.615 150.455 17.615C150.875 17.615 151.145 17.57 151.265 17.48C151.385 17.39 151.445 17.18 151.445 16.85V16.4ZM158.56 30.395C158.56 28.685 159.13 27.26 160.27 26.12C161.44 24.98 163.165 24.41 165.445 24.41C167.755 24.41 169.525 24.98 170.755 26.12C171.985 27.23 172.6 28.88 172.6 31.07C172.6 31.31 172.51 31.52 172.33 31.7C172.18 31.85 171.985 31.925 171.745 31.925H171.34C171.1 31.925 170.89 31.85 170.71 31.7C170.56 31.52 170.485 31.325 170.485 31.115C170.485 28.085 168.79 26.57 165.4 26.57C163.84 26.57 162.655 26.945 161.845 27.695C161.065 28.445 160.675 29.39 160.675 30.53C160.675 31.67 161.05 32.585 161.8 33.275C162.58 33.935 164.035 34.475 166.165 34.895C168.295 35.315 169.96 35.975 171.16 36.875C172.36 37.775 172.96 39.125 172.96 40.925C172.96 42.695 172.3 44.18 170.98 45.38C169.69 46.55 167.875 47.135 165.535 47.135C163.225 47.135 161.35 46.55 159.91 45.38C158.47 44.18 157.75 42.425 157.75 40.115C157.75 39.485 158.05 39.17 158.65 39.17H159.01C159.58 39.17 159.865 39.47 159.865 40.07C159.865 43.34 161.8 44.975 165.67 44.975C167.41 44.975 168.7 44.585 169.54 43.805C170.41 42.995 170.845 42.005 170.845 40.835C170.845 39.665 170.395 38.825 169.495 38.315C168.595 37.775 167.02 37.265 164.77 36.785C162.55 36.305 160.96 35.54 160 34.49C159.04 33.44 158.56 32.075 158.56 30.395Z" fill="white"/>
</svg>
